<svg width="278" height="40" viewBox="0 0 278 40" fill="none" xmlns="http://www.w3.org/2000/svg">
<rect width="278" height="40" rx="20" fill="#262626"/>
<path fill-rule="evenodd" clip-rule="evenodd" d="M15.1691 13.1656C15.8559 12.3758 16.8694 11.875 18 11.875C19.1305 11.875 20.144 12.3757 20.8308 13.1655C21.8751 13.0926 22.946 13.4551 23.7455 14.2546C24.545 15.0542 24.9076 16.1251 24.8347 17.1693C25.6243 17.8561 26.125 18.8696 26.125 20C26.125 21.1306 25.6242 22.1443 24.8342 22.8311C24.907 23.8751 24.5444 24.9458 23.7451 25.7452C22.9457 26.5446 21.875 26.9072 20.8309 26.8344C20.1441 27.6242 19.1306 28.125 18 28.125C16.8695 28.125 15.856 27.6243 15.1692 26.8345C14.1249 26.9075 13.054 26.5449 12.2545 25.7454C11.455 24.9459 11.0924 23.8749 11.1653 22.8307C10.3757 22.1439 9.875 21.1304 9.875 20C9.875 18.8695 10.3757 17.856 11.1655 17.1692C11.0926 16.125 11.4552 15.0542 12.2546 14.2548C13.0541 13.4553 14.1249 13.0927 15.1691 13.1656ZM21.0086 18.4883C21.2092 18.2074 21.1442 17.817 20.8633 17.6164C20.5824 17.4158 20.192 17.4808 19.9914 17.7617L17.2952 21.5364L15.9419 20.1831C15.6979 19.939 15.3021 19.939 15.0581 20.1831C14.814 20.4271 14.814 20.8229 15.0581 21.0669L16.9331 22.9419C17.063 23.0719 17.2435 23.138 17.4266 23.1229C17.6096 23.1077 17.7768 23.0128 17.8836 22.8633L21.0086 18.4883Z" fill="#CAFF33"/>
<path d="M33.442 25V15.2H34.436L40.848 23.684L40.652 23.936C40.624 23.7867 40.6007 23.5627 40.582 23.264C40.5727 22.9653 40.5587 22.6293 40.54 22.256C40.5307 21.8733 40.5213 21.4767 40.512 21.066C40.5027 20.6553 40.4933 20.254 40.484 19.862C40.484 19.47 40.484 19.1153 40.484 18.798V15.2H41.576V25H40.554L34.17 16.628L34.338 16.334C34.366 16.7073 34.3893 17.076 34.408 17.44C34.436 17.804 34.4547 18.154 34.464 18.49C34.4827 18.826 34.4967 19.134 34.506 19.414C34.5153 19.694 34.52 19.932 34.52 20.128C34.5293 20.324 34.534 20.464 34.534 20.548V25H33.442ZM47.2755 25.14C46.5475 25.14 45.8989 24.9767 45.3295 24.65C44.7695 24.3233 44.3262 23.8707 43.9995 23.292C43.6822 22.7133 43.5235 22.0553 43.5235 21.318C43.5235 20.59 43.6822 19.9413 43.9995 19.372C44.3262 18.8027 44.7695 18.3547 45.3295 18.028C45.8989 17.7013 46.5475 17.538 47.2755 17.538C47.9942 17.538 48.6335 17.7013 49.1935 18.028C49.7629 18.3547 50.2062 18.8027 50.5235 19.372C50.8502 19.9413 51.0135 20.59 51.0135 21.318C51.0135 22.0553 50.8502 22.7133 50.5235 23.292C50.2062 23.8707 49.7629 24.3233 49.1935 24.65C48.6335 24.9767 47.9942 25.14 47.2755 25.14ZM47.2755 24.146C47.7889 24.146 48.2462 24.0247 48.6475 23.782C49.0489 23.53 49.3615 23.194 49.5855 22.774C49.8095 22.3447 49.9215 21.8593 49.9215 21.318C49.9215 20.7767 49.8095 20.296 49.5855 19.876C49.3615 19.456 49.0489 19.1293 48.6475 18.896C48.2462 18.6533 47.7889 18.532 47.2755 18.532C46.7622 18.532 46.3002 18.6533 45.8895 18.896C45.4882 19.1293 45.1709 19.4607 44.9375 19.89C44.7135 20.31 44.6062 20.786 44.6155 21.318C44.6062 21.8593 44.7135 22.3447 44.9375 22.774C45.1709 23.194 45.4882 23.53 45.8895 23.782C46.3002 24.0247 46.7622 24.146 47.2755 24.146ZM56.8893 25V15.2H57.9813V23.936H62.6853V25H56.8893ZM64.819 25V15.2H65.911V23.936H70.615V25H64.819ZM76.5352 25.14C75.8352 25.14 75.1912 25.0187 74.6032 24.776C74.0152 24.524 73.5065 24.174 73.0772 23.726C72.6479 23.2687 72.3119 22.732 72.0692 22.116C71.8359 21.5 71.7192 20.828 71.7192 20.1C71.7192 19.3813 71.8359 18.7233 72.0692 18.126C72.3119 17.5193 72.6525 16.992 73.0912 16.544C73.5299 16.0867 74.0385 15.7367 74.6172 15.494C75.1959 15.2513 75.8305 15.13 76.5212 15.13C76.9785 15.13 77.4312 15.2047 77.8792 15.354C78.3272 15.494 78.7379 15.69 79.1112 15.942C79.4939 16.194 79.8065 16.4833 80.0492 16.81L79.2932 17.594C79.0599 17.314 78.7892 17.0713 78.4812 16.866C78.1825 16.6607 77.8652 16.502 77.5292 16.39C77.1932 16.278 76.8572 16.222 76.5212 16.222C75.9985 16.222 75.5085 16.32 75.0512 16.516C74.6032 16.7027 74.2159 16.9687 73.8892 17.314C73.5625 17.6593 73.3059 18.07 73.1192 18.546C72.9419 19.022 72.8532 19.54 72.8532 20.1C72.8532 20.6787 72.9419 21.2107 73.1192 21.696C73.3059 22.1813 73.5672 22.6013 73.9032 22.956C74.2485 23.3013 74.6499 23.572 75.1072 23.768C75.5739 23.9547 76.0919 24.048 76.6612 24.048C76.9972 24.048 77.3332 24.0013 77.6692 23.908C78.0052 23.8053 78.3132 23.6653 78.5932 23.488C78.8732 23.3107 79.1112 23.11 79.3072 22.886L79.8672 23.796C79.6525 24.0573 79.3632 24.2907 78.9992 24.496C78.6445 24.692 78.2525 24.8507 77.8232 24.972C77.3939 25.084 76.9645 25.14 76.5352 25.14ZM85.86 25V15.2H89.696C90.2653 15.2 90.7786 15.3353 91.236 15.606C91.7026 15.8673 92.0713 16.2267 92.342 16.684C92.6126 17.1413 92.748 17.6593 92.748 18.238C92.748 18.7793 92.6173 19.2693 92.356 19.708C92.0946 20.1467 91.74 20.4967 91.292 20.758C90.844 21.01 90.34 21.136 89.78 21.136H86.952V25H85.86ZM91.838 25L89.374 20.688L90.424 20.324L93.14 25H91.838ZM86.952 20.072H89.878C90.2233 20.072 90.5266 19.9927 90.788 19.834C91.0493 19.6753 91.2546 19.4607 91.404 19.19C91.5533 18.91 91.628 18.5927 91.628 18.238C91.628 17.8553 91.5393 17.5147 91.362 17.216C91.1846 16.9173 90.9373 16.684 90.62 16.516C90.312 16.348 89.9573 16.264 89.556 16.264H86.952V20.072ZM97.6287 25.14C96.9007 25.14 96.2521 24.9813 95.6827 24.664C95.1227 24.3467 94.6841 23.9033 94.3667 23.334C94.0494 22.7647 93.8907 22.1113 93.8907 21.374C93.8907 20.8047 93.9794 20.2913 94.1567 19.834C94.3341 19.3673 94.5814 18.9613 94.8987 18.616C95.2254 18.2707 95.6127 18.0047 96.0607 17.818C96.5087 17.622 96.9941 17.524 97.5167 17.524C98.0114 17.524 98.4594 17.6127 98.8607 17.79C99.2714 17.9673 99.6214 18.2147 99.9107 18.532C100.209 18.84 100.433 19.2087 100.583 19.638C100.732 20.0673 100.797 20.5387 100.779 21.052L100.765 21.542H94.6747L94.5207 20.66H99.9667L99.7147 20.898V20.562C99.6961 20.226 99.5981 19.904 99.4207 19.596C99.2434 19.2787 98.9914 19.022 98.6647 18.826C98.3474 18.63 97.9647 18.532 97.5167 18.532C96.9941 18.532 96.5414 18.6393 96.1587 18.854C95.7761 19.0593 95.4821 19.3673 95.2767 19.778C95.0714 20.1887 94.9687 20.6973 94.9687 21.304C94.9687 21.8827 95.0807 22.3867 95.3047 22.816C95.5287 23.236 95.8461 23.5627 96.2567 23.796C96.6767 24.0293 97.1807 24.146 97.7687 24.146C98.1141 24.146 98.4547 24.09 98.7907 23.978C99.1361 23.8567 99.5141 23.6233 99.9247 23.278L100.471 24.034C100.256 24.2487 99.9994 24.44 99.7007 24.608C99.4021 24.7667 99.0754 24.8973 98.7207 25C98.3661 25.0933 98.0021 25.14 97.6287 25.14ZM107.856 28.08V23.208L108.08 23.082C108.043 23.3433 107.935 23.6 107.758 23.852C107.59 24.0947 107.375 24.314 107.114 24.51C106.853 24.706 106.559 24.86 106.232 24.972C105.905 25.084 105.569 25.14 105.224 25.14C104.561 25.14 103.969 24.9767 103.446 24.65C102.923 24.3233 102.508 23.8753 102.2 23.306C101.901 22.7273 101.752 22.074 101.752 21.346C101.752 20.6087 101.901 19.9553 102.2 19.386C102.508 18.8073 102.923 18.3547 103.446 18.028C103.969 17.7013 104.552 17.538 105.196 17.538C105.569 17.538 105.919 17.5987 106.246 17.72C106.582 17.832 106.885 17.986 107.156 18.182C107.427 18.378 107.651 18.6067 107.828 18.868C108.005 19.12 108.113 19.386 108.15 19.666L107.814 19.582L107.856 17.678H108.906V28.08H107.856ZM105.35 24.132C105.835 24.132 106.269 24.0153 106.652 23.782C107.044 23.5393 107.352 23.208 107.576 22.788C107.8 22.368 107.912 21.8827 107.912 21.332C107.912 20.7907 107.8 20.31 107.576 19.89C107.352 19.47 107.049 19.1387 106.666 18.896C106.283 18.6533 105.845 18.532 105.35 18.532C104.855 18.532 104.417 18.6533 104.034 18.896C103.651 19.1387 103.348 19.47 103.124 19.89C102.909 20.31 102.802 20.7907 102.802 21.332C102.802 21.864 102.909 22.3447 103.124 22.774C103.339 23.194 103.637 23.5253 104.02 23.768C104.403 24.0107 104.846 24.132 105.35 24.132ZM113.542 25.14C112.982 25.14 112.506 25.028 112.114 24.804C111.731 24.5707 111.437 24.2347 111.232 23.796C111.036 23.3573 110.938 22.8113 110.938 22.158V17.692H112.002V21.948C112.002 22.4427 112.067 22.858 112.198 23.194C112.338 23.5207 112.543 23.768 112.814 23.936C113.094 24.104 113.434 24.188 113.836 24.188C114.144 24.188 114.428 24.1367 114.69 24.034C114.951 23.922 115.18 23.7727 115.376 23.586C115.572 23.3993 115.726 23.18 115.838 22.928C115.95 22.676 116.006 22.41 116.006 22.13V17.692H117.056V25H116.02L115.978 23.46L116.146 23.376C116.034 23.7027 115.847 24.0013 115.586 24.272C115.324 24.5333 115.012 24.7433 114.648 24.902C114.293 25.0607 113.924 25.14 113.542 25.14ZM119.38 25V17.692H120.43V25H119.38ZM119.898 16.11C119.637 16.11 119.436 16.0447 119.296 15.914C119.165 15.774 119.1 15.5873 119.1 15.354C119.1 15.1207 119.17 14.934 119.31 14.794C119.45 14.654 119.646 14.584 119.898 14.584C120.15 14.584 120.346 14.654 120.486 14.794C120.626 14.9247 120.696 15.1113 120.696 15.354C120.696 15.578 120.626 15.76 120.486 15.9C120.346 16.04 120.15 16.11 119.898 16.11ZM122.723 25V17.692H123.773L123.801 19.638L123.689 19.372C123.792 19.0453 123.955 18.742 124.179 18.462C124.413 18.182 124.688 17.958 125.005 17.79C125.323 17.622 125.673 17.538 126.055 17.538C126.214 17.538 126.363 17.552 126.503 17.58C126.643 17.5987 126.76 17.6267 126.853 17.664L126.559 18.84C126.438 18.784 126.312 18.7467 126.181 18.728C126.06 18.7 125.943 18.686 125.831 18.686C125.514 18.686 125.229 18.742 124.977 18.854C124.725 18.966 124.511 19.1247 124.333 19.33C124.156 19.526 124.021 19.7547 123.927 20.016C123.834 20.2773 123.787 20.5573 123.787 20.856V25H122.723ZM130.851 25.14C130.123 25.14 129.475 24.9813 128.905 24.664C128.345 24.3467 127.907 23.9033 127.589 23.334C127.272 22.7647 127.113 22.1113 127.113 21.374C127.113 20.8047 127.202 20.2913 127.379 19.834C127.557 19.3673 127.804 18.9613 128.121 18.616C128.448 18.2707 128.835 18.0047 129.283 17.818C129.731 17.622 130.217 17.524 130.739 17.524C131.234 17.524 131.682 17.6127 132.083 17.79C132.494 17.9673 132.844 18.2147 133.133 18.532C133.432 18.84 133.656 19.2087 133.805 19.638C133.955 20.0673 134.02 20.5387 134.001 21.052L133.987 21.542H127.897L127.743 20.66H133.189L132.937 20.898V20.562C132.919 20.226 132.821 19.904 132.643 19.596C132.466 19.2787 132.214 19.022 131.887 18.826C131.57 18.63 131.187 18.532 130.739 18.532C130.217 18.532 129.764 18.6393 129.381 18.854C128.999 19.0593 128.705 19.3673 128.499 19.778C128.294 20.1887 128.191 20.6973 128.191 21.304C128.191 21.8827 128.303 22.3867 128.527 22.816C128.751 23.236 129.069 23.5627 129.479 23.796C129.899 24.0293 130.403 24.146 130.991 24.146C131.337 24.146 131.677 24.09 132.013 23.978C132.359 23.8567 132.737 23.6233 133.147 23.278L133.693 24.034C133.479 24.2487 133.222 24.44 132.923 24.608C132.625 24.7667 132.298 24.8973 131.943 25C131.589 25.0933 131.225 25.14 130.851 25.14ZM138.461 25.14C137.798 25.14 137.201 24.9767 136.669 24.65C136.146 24.3233 135.731 23.8753 135.423 23.306C135.124 22.7273 134.975 22.074 134.975 21.346C134.975 20.6087 135.129 19.9553 135.437 19.386C135.745 18.8073 136.16 18.3547 136.683 18.028C137.205 17.7013 137.793 17.538 138.447 17.538C138.811 17.538 139.161 17.594 139.497 17.706C139.842 17.818 140.15 17.9767 140.421 18.182C140.691 18.378 140.915 18.6067 141.093 18.868C141.27 19.12 141.377 19.386 141.415 19.666L141.093 19.554V14.64H142.143V25H141.107L141.079 23.18L141.345 23.082C141.307 23.3433 141.2 23.6 141.023 23.852C140.855 24.0947 140.64 24.314 140.379 24.51C140.117 24.706 139.819 24.86 139.483 24.972C139.156 25.084 138.815 25.14 138.461 25.14ZM138.615 24.174C139.1 24.174 139.534 24.0527 139.917 23.81C140.299 23.5673 140.598 23.2313 140.813 22.802C141.037 22.3727 141.149 21.8827 141.149 21.332C141.149 20.7813 141.037 20.296 140.813 19.876C140.598 19.4467 140.299 19.1107 139.917 18.868C139.534 18.616 139.1 18.49 138.615 18.49C138.111 18.49 137.667 18.616 137.285 18.868C136.911 19.1107 136.613 19.4467 136.389 19.876C136.174 20.296 136.067 20.7813 136.067 21.332C136.067 21.8733 136.174 22.3587 136.389 22.788C136.603 23.2173 136.902 23.558 137.285 23.81C137.667 24.0527 138.111 24.174 138.615 24.174ZM144.328 27.31L143.936 26.806C144.235 26.6287 144.468 26.4373 144.636 26.232C144.804 26.0267 144.888 25.8307 144.888 25.644C144.888 25.5413 144.869 25.4433 144.832 25.35C144.795 25.2567 144.701 25.14 144.552 25C144.421 24.8787 144.323 24.762 144.258 24.65C144.202 24.538 144.174 24.4213 144.174 24.3C144.174 24.1133 144.239 23.964 144.37 23.852C144.501 23.7307 144.673 23.67 144.888 23.67C145.103 23.67 145.289 23.726 145.448 23.838C145.607 23.95 145.728 24.1087 145.812 24.314C145.905 24.51 145.952 24.7433 145.952 25.014C145.952 25.266 145.915 25.4993 145.84 25.714C145.765 25.938 145.658 26.148 145.518 26.344C145.378 26.54 145.21 26.7173 145.014 26.876C144.818 27.0347 144.589 27.1793 144.328 27.31ZM152.018 25V15.2H153.012L159.424 23.684L159.228 23.936C159.2 23.7867 159.177 23.5627 159.158 23.264C159.149 22.9653 159.135 22.6293 159.116 22.256C159.107 21.8733 159.098 21.4767 159.088 21.066C159.079 20.6553 159.07 20.254 159.06 19.862C159.06 19.47 159.06 19.1153 159.06 18.798V15.2H160.152V25H159.13L152.746 16.628L152.914 16.334C152.942 16.7073 152.966 17.076 152.984 17.44C153.012 17.804 153.031 18.154 153.04 18.49C153.059 18.826 153.073 19.134 153.082 19.414C153.092 19.694 153.096 19.932 153.096 20.128C153.106 20.324 153.11 20.464 153.11 20.548V25H152.018ZM165.852 25.14C165.124 25.14 164.475 24.9767 163.906 24.65C163.346 24.3233 162.902 23.8707 162.576 23.292C162.258 22.7133 162.1 22.0553 162.1 21.318C162.1 20.59 162.258 19.9413 162.576 19.372C162.902 18.8027 163.346 18.3547 163.906 18.028C164.475 17.7013 165.124 17.538 165.852 17.538C166.57 17.538 167.21 17.7013 167.77 18.028C168.339 18.3547 168.782 18.8027 169.1 19.372C169.426 19.9413 169.59 20.59 169.59 21.318C169.59 22.0553 169.426 22.7133 169.1 23.292C168.782 23.8707 168.339 24.3233 167.77 24.65C167.21 24.9767 166.57 25.14 165.852 25.14ZM165.852 24.146C166.365 24.146 166.822 24.0247 167.224 23.782C167.625 23.53 167.938 23.194 168.162 22.774C168.386 22.3447 168.498 21.8593 168.498 21.318C168.498 20.7767 168.386 20.296 168.162 19.876C167.938 19.456 167.625 19.1293 167.224 18.896C166.822 18.6533 166.365 18.532 165.852 18.532C165.338 18.532 164.876 18.6533 164.466 18.896C164.064 19.1293 163.747 19.4607 163.514 19.89C163.29 20.31 163.182 20.786 163.192 21.318C163.182 21.8593 163.29 22.3447 163.514 22.774C163.747 23.194 164.064 23.53 164.466 23.782C164.876 24.0247 165.338 24.146 165.852 24.146ZM179.525 25.14C178.825 25.14 178.181 25.0187 177.593 24.776C177.005 24.524 176.497 24.174 176.067 23.726C175.638 23.2687 175.302 22.732 175.059 22.116C174.826 21.5 174.709 20.828 174.709 20.1C174.709 19.3813 174.826 18.7233 175.059 18.126C175.302 17.5193 175.643 16.992 176.081 16.544C176.52 16.0867 177.029 15.7367 177.607 15.494C178.186 15.2513 178.821 15.13 179.511 15.13C179.969 15.13 180.421 15.2047 180.869 15.354C181.317 15.494 181.728 15.69 182.101 15.942C182.484 16.194 182.797 16.4833 183.039 16.81L182.283 17.594C182.05 17.314 181.779 17.0713 181.471 16.866C181.173 16.6607 180.855 16.502 180.519 16.39C180.183 16.278 179.847 16.222 179.511 16.222C178.989 16.222 178.499 16.32 178.041 16.516C177.593 16.7027 177.206 16.9687 176.879 17.314C176.553 17.6593 176.296 18.07 176.109 18.546C175.932 19.022 175.843 19.54 175.843 20.1C175.843 20.6787 175.932 21.2107 176.109 21.696C176.296 22.1813 176.557 22.6013 176.893 22.956C177.239 23.3013 177.64 23.572 178.097 23.768C178.564 23.9547 179.082 24.048 179.651 24.048C179.987 24.048 180.323 24.0013 180.659 23.908C180.995 23.8053 181.303 23.6653 181.583 23.488C181.863 23.3107 182.101 23.11 182.297 22.886L182.857 23.796C182.643 24.0573 182.353 24.2907 181.989 24.496C181.635 24.692 181.243 24.8507 180.813 24.972C180.384 25.084 179.955 25.14 179.525 25.14ZM184.506 25V17.692H185.556L185.584 19.638L185.472 19.372C185.575 19.0453 185.738 18.742 185.962 18.462C186.196 18.182 186.471 17.958 186.788 17.79C187.106 17.622 187.456 17.538 187.838 17.538C187.997 17.538 188.146 17.552 188.286 17.58C188.426 17.5987 188.543 17.6267 188.636 17.664L188.342 18.84C188.221 18.784 188.095 18.7467 187.964 18.728C187.843 18.7 187.726 18.686 187.614 18.686C187.297 18.686 187.012 18.742 186.76 18.854C186.508 18.966 186.294 19.1247 186.116 19.33C185.939 19.526 185.804 19.7547 185.71 20.016C185.617 20.2773 185.57 20.5573 185.57 20.856V25H184.506ZM192.635 25.14C191.907 25.14 191.258 24.9813 190.689 24.664C190.129 24.3467 189.69 23.9033 189.373 23.334C189.055 22.7647 188.897 22.1113 188.897 21.374C188.897 20.8047 188.985 20.2913 189.163 19.834C189.34 19.3673 189.587 18.9613 189.905 18.616C190.231 18.2707 190.619 18.0047 191.067 17.818C191.515 17.622 192 17.524 192.523 17.524C193.017 17.524 193.465 17.6127 193.867 17.79C194.277 17.9673 194.627 18.2147 194.917 18.532C195.215 18.84 195.439 19.2087 195.589 19.638C195.738 20.0673 195.803 20.5387 195.785 21.052L195.771 21.542H189.681L189.527 20.66H194.973L194.721 20.898V20.562C194.702 20.226 194.604 19.904 194.427 19.596C194.249 19.2787 193.997 19.022 193.671 18.826C193.353 18.63 192.971 18.532 192.523 18.532C192 18.532 191.547 18.6393 191.165 18.854C190.782 19.0593 190.488 19.3673 190.283 19.778C190.077 20.1887 189.975 20.6973 189.975 21.304C189.975 21.8827 190.087 22.3867 190.311 22.816C190.535 23.236 190.852 23.5627 191.263 23.796C191.683 24.0293 192.187 24.146 192.775 24.146C193.12 24.146 193.461 24.09 193.797 23.978C194.142 23.8567 194.52 23.6233 194.931 23.278L195.477 24.034C195.262 24.2487 195.005 24.44 194.707 24.608C194.408 24.7667 194.081 24.8973 193.727 25C193.372 25.0933 193.008 25.14 192.635 25.14ZM200.244 25.14C199.581 25.14 198.984 24.9767 198.452 24.65C197.929 24.3233 197.514 23.8753 197.206 23.306C196.907 22.7273 196.758 22.074 196.758 21.346C196.758 20.6087 196.912 19.9553 197.22 19.386C197.528 18.8073 197.943 18.3547 198.466 18.028C198.989 17.7013 199.577 17.538 200.23 17.538C200.594 17.538 200.944 17.594 201.28 17.706C201.625 17.818 201.933 17.9767 202.204 18.182C202.475 18.378 202.699 18.6067 202.876 18.868C203.053 19.12 203.161 19.386 203.198 19.666L202.876 19.554V14.64H203.926V25H202.89L202.862 23.18L203.128 23.082C203.091 23.3433 202.983 23.6 202.806 23.852C202.638 24.0947 202.423 24.314 202.162 24.51C201.901 24.706 201.602 24.86 201.266 24.972C200.939 25.084 200.599 25.14 200.244 25.14ZM200.398 24.174C200.883 24.174 201.317 24.0527 201.7 23.81C202.083 23.5673 202.381 23.2313 202.596 22.802C202.82 22.3727 202.932 21.8827 202.932 21.332C202.932 20.7813 202.82 20.296 202.596 19.876C202.381 19.4467 202.083 19.1107 201.7 18.868C201.317 18.616 200.883 18.49 200.398 18.49C199.894 18.49 199.451 18.616 199.068 18.868C198.695 19.1107 198.396 19.4467 198.172 19.876C197.957 20.296 197.85 20.7813 197.85 21.332C197.85 21.8733 197.957 22.3587 198.172 22.788C198.387 23.2173 198.685 23.558 199.068 23.81C199.451 24.0527 199.894 24.174 200.398 24.174ZM206.251 25V17.692H207.301V25H206.251ZM206.769 16.11C206.508 16.11 206.307 16.0447 206.167 15.914C206.037 15.774 205.971 15.5873 205.971 15.354C205.971 15.1207 206.041 14.934 206.181 14.794C206.321 14.654 206.517 14.584 206.769 14.584C207.021 14.584 207.217 14.654 207.357 14.794C207.497 14.9247 207.567 15.1113 207.567 15.354C207.567 15.578 207.497 15.76 207.357 15.9C207.217 16.04 207.021 16.11 206.769 16.11ZM210.602 25V15.774H211.652V25H210.602ZM208.95 18.7V17.692H213.5V18.7H208.95ZM223.193 25.14C222.493 25.14 221.849 25.0187 221.261 24.776C220.673 24.524 220.165 24.174 219.735 23.726C219.306 23.2687 218.97 22.732 218.727 22.116C218.494 21.5 218.377 20.828 218.377 20.1C218.377 19.3813 218.494 18.7233 218.727 18.126C218.97 17.5193 219.311 16.992 219.749 16.544C220.188 16.0867 220.697 15.7367 221.275 15.494C221.854 15.2513 222.489 15.13 223.179 15.13C223.637 15.13 224.089 15.2047 224.537 15.354C224.985 15.494 225.396 15.69 225.769 15.942C226.152 16.194 226.465 16.4833 226.707 16.81L225.951 17.594C225.718 17.314 225.447 17.0713 225.139 16.866C224.841 16.6607 224.523 16.502 224.187 16.39C223.851 16.278 223.515 16.222 223.179 16.222C222.657 16.222 222.167 16.32 221.709 16.516C221.261 16.7027 220.874 16.9687 220.547 17.314C220.221 17.6593 219.964 18.07 219.777 18.546C219.6 19.022 219.511 19.54 219.511 20.1C219.511 20.6787 219.6 21.2107 219.777 21.696C219.964 22.1813 220.225 22.6013 220.561 22.956C220.907 23.3013 221.308 23.572 221.765 23.768C222.232 23.9547 222.75 24.048 223.319 24.048C223.655 24.048 223.991 24.0013 224.327 23.908C224.663 23.8053 224.971 23.6653 225.251 23.488C225.531 23.3107 225.769 23.11 225.965 22.886L226.525 23.796C226.311 24.0573 226.021 24.2907 225.657 24.496C225.303 24.692 224.911 24.8507 224.481 24.972C224.052 25.084 223.623 25.14 223.193 25.14ZM228.174 25V14.64H229.224V19.288L229.014 19.498C229.117 19.1153 229.308 18.7793 229.588 18.49C229.868 18.1913 230.195 17.958 230.568 17.79C230.951 17.622 231.338 17.538 231.73 17.538C232.29 17.538 232.757 17.6453 233.13 17.86C233.504 18.0747 233.779 18.406 233.956 18.854C234.143 19.302 234.236 19.8713 234.236 20.562V25H233.172V20.618C233.172 20.1327 233.107 19.736 232.976 19.428C232.855 19.1107 232.664 18.8773 232.402 18.728C232.141 18.5787 231.814 18.5087 231.422 18.518C231.114 18.518 230.825 18.574 230.554 18.686C230.284 18.7887 230.05 18.9333 229.854 19.12C229.658 19.3067 229.504 19.5213 229.392 19.764C229.28 20.0067 229.224 20.268 229.224 20.548V25H228.706C228.641 25 228.566 25 228.482 25C228.398 25 228.296 25 228.174 25ZM239.461 25.14C238.733 25.14 238.084 24.9813 237.515 24.664C236.955 24.3467 236.516 23.9033 236.199 23.334C235.881 22.7647 235.723 22.1113 235.723 21.374C235.723 20.8047 235.811 20.2913 235.989 19.834C236.166 19.3673 236.413 18.9613 236.731 18.616C237.057 18.2707 237.445 18.0047 237.893 17.818C238.341 17.622 238.826 17.524 239.349 17.524C239.843 17.524 240.291 17.6127 240.693 17.79C241.103 17.9673 241.453 18.2147 241.743 18.532C242.041 18.84 242.265 19.2087 242.415 19.638C242.564 20.0673 242.629 20.5387 242.611 21.052L242.597 21.542H236.507L236.353 20.66H241.799L241.547 20.898V20.562C241.528 20.226 241.43 19.904 241.253 19.596C241.075 19.2787 240.823 19.022 240.497 18.826C240.179 18.63 239.797 18.532 239.349 18.532C238.826 18.532 238.373 18.6393 237.991 18.854C237.608 19.0593 237.314 19.3673 237.109 19.778C236.903 20.1887 236.801 20.6973 236.801 21.304C236.801 21.8827 236.913 22.3867 237.137 22.816C237.361 23.236 237.678 23.5627 238.089 23.796C238.509 24.0293 239.013 24.146 239.601 24.146C239.946 24.146 240.287 24.09 240.623 23.978C240.968 23.8567 241.346 23.6233 241.757 23.278L242.303 24.034C242.088 24.2487 241.831 24.44 241.533 24.608C241.234 24.7667 240.907 24.8973 240.553 25C240.198 25.0933 239.834 25.14 239.461 25.14ZM247.182 25.14C246.491 25.14 245.875 24.9767 245.334 24.65C244.793 24.314 244.363 23.8613 244.046 23.292C243.738 22.7133 243.584 22.06 243.584 21.332C243.584 20.604 243.738 19.9553 244.046 19.386C244.363 18.8073 244.793 18.3547 245.334 18.028C245.875 17.7013 246.496 17.538 247.196 17.538C247.821 17.538 248.391 17.664 248.904 17.916C249.417 18.1587 249.828 18.4993 250.136 18.938L249.52 19.694C249.343 19.4607 249.128 19.2553 248.876 19.078C248.633 18.9007 248.367 18.7653 248.078 18.672C247.798 18.5693 247.518 18.518 247.238 18.518C246.743 18.518 246.3 18.644 245.908 18.896C245.516 19.1387 245.203 19.47 244.97 19.89C244.746 20.31 244.634 20.7907 244.634 21.332C244.634 21.8733 244.746 22.3587 244.97 22.788C245.203 23.208 245.516 23.5393 245.908 23.782C246.3 24.0247 246.739 24.146 247.224 24.146C247.504 24.146 247.779 24.104 248.05 24.02C248.321 23.9267 248.577 23.796 248.82 23.628C249.063 23.46 249.287 23.25 249.492 22.998L250.108 23.754C249.791 24.174 249.366 24.51 248.834 24.762C248.302 25.014 247.751 25.14 247.182 25.14ZM252.409 22.648L252.367 21.43L256.189 17.692H257.603L252.409 22.648ZM251.471 25V14.64H252.521V25H251.471ZM256.483 25L253.403 21.43L254.145 20.702L257.855 25H256.483ZM259.578 25.14C259.326 25.14 259.13 25.0653 258.99 24.916C258.86 24.7667 258.794 24.552 258.794 24.272C258.794 24.02 258.864 23.8147 259.004 23.656C259.154 23.488 259.345 23.404 259.578 23.404C259.83 23.404 260.022 23.4833 260.152 23.642C260.292 23.7913 260.362 24.0013 260.362 24.272C260.362 24.5333 260.288 24.7433 260.138 24.902C259.998 25.0607 259.812 25.14 259.578 25.14Z" fill="white"/>
</svg>
