<svg width="29" height="28" viewBox="0 0 29 28" fill="none" xmlns="http://www.w3.org/2000/svg">
<path d="M28.1165 17.0523C26.2718 24.4106 18.7775 28.8883 11.3778 27.0538C3.98145 25.2193 -0.521427 17.7661 1.32366 10.4083C3.16745 3.04921 10.6613 -1.42935 18.0589 0.405167C25.4583 2.23969 29.9607 9.69366 28.1161 17.0523H28.1165Z" fill="#262626"/>
<path fill-rule="evenodd" clip-rule="evenodd" d="M18.8779 12.1343C19.0641 10.8944 18.1149 10.2279 16.8169 9.78327L17.2379 8.10373L16.2097 7.84895L15.7998 9.48422C15.5298 9.41725 15.2522 9.35406 14.9764 9.29146L15.3893 7.64541L14.3619 7.39062L13.9405 9.06958C13.7168 9.01891 13.4973 8.96883 13.2841 8.91613L13.2853 8.91089L11.8676 8.55885L11.5941 9.65078C11.5941 9.65078 12.3568 9.82461 12.3407 9.83539C12.7571 9.93876 12.8326 10.2128 12.8197 10.43L12.3401 12.3433C12.3688 12.3506 12.406 12.3611 12.447 12.3774L12.3387 12.3506L11.6661 15.0309C11.6152 15.1567 11.4861 15.3454 11.195 15.2738C11.2053 15.2886 10.4478 15.0883 10.4478 15.0883L9.9375 16.2589L11.2756 16.5905C11.4266 16.6282 11.5759 16.6669 11.7234 16.7052C11.819 16.73 11.9139 16.7546 12.0081 16.7786L11.5827 18.4777L12.6095 18.7324L13.0311 17.0517C13.3113 17.1275 13.5836 17.1973 13.8501 17.2631L13.4302 18.936L14.4582 19.1908L14.8836 17.4952C16.6366 17.8251 17.955 17.6921 18.5092 16.1156C18.9563 14.846 18.4873 14.1137 17.565 13.6359C18.2367 13.4813 18.7426 13.0419 18.8776 12.1343H18.8779ZM16.5271 15.4094C16.2352 16.5746 14.4009 16.0924 13.5624 15.872C13.4873 15.8523 13.4202 15.8347 13.3629 15.8205L13.9274 13.57C13.9974 13.5873 14.083 13.6064 14.1799 13.6281L14.1799 13.6281C15.0474 13.8217 16.8252 14.2184 16.5274 15.4094H16.5271ZM14.3544 12.584C15.0541 12.7696 16.5792 13.1742 16.8449 12.1157C17.1165 11.0329 15.6335 10.7065 14.9092 10.5471C14.8278 10.5292 14.7559 10.5133 14.6973 10.4988L14.1855 12.54C14.2339 12.552 14.2907 12.5671 14.3544 12.584Z" fill="#CAFF33"/>
</svg>
