<svg width="28" height="28" viewBox="0 0 28 28" fill="none" xmlns="http://www.w3.org/2000/svg">
<path d="M27.586 13.7292C27.586 21.2751 21.4353 27.3922 13.8478 27.3922C6.26023 27.3922 0.109375 21.2751 0.109375 13.7292C0.109375 6.18346 6.26023 0.0664062 13.8478 0.0664062C21.4352 0.0664062 27.586 6.18346 27.586 13.7292Z" fill="#262626"/>
<g opacity="0.8">
<path d="M13.8017 7.39062L13.7168 7.67746V16.0008L13.8017 16.0851L17.6866 13.8013L13.8017 7.39062Z" fill="#CAFF33"/>
<path d="M13.8029 7.39062L9.91797 13.8013L13.8029 16.0851V12.0452V7.39062Z" fill="#CAFF33"/>
<path d="M13.8037 17.3422L13.7559 17.4002V20.3651L13.8037 20.504L17.691 15.0596L13.8037 17.3422Z" fill="#CAFF33"/>
<path d="M13.8029 20.5041V17.3422L9.91797 15.0596L13.8029 20.5041Z" fill="#CAFF33"/>
<path d="M13.8027 16.0848L17.6876 13.801L13.8027 12.0449V16.0848Z" fill="#CAFF33"/>
<path d="M9.91797 13.801L13.8029 16.0848V12.0449L9.91797 13.801Z" fill="#CAFF33"/>
</g>
</svg>
