<svg width="9" height="14" viewBox="0 0 9 14" fill="none" xmlns="http://www.w3.org/2000/svg">
<path fill-rule="evenodd" clip-rule="evenodd" d="M3.24471 0.390625C4.00322 0.390625 4.75894 0.390625 5.51745 0.390625C5.47284 0.900917 5.42543 1.41398 5.3836 1.92427C6.2676 1.98806 7.12929 2.27094 7.90454 2.68971C7.5699 3.52725 7.23247 4.3648 6.89505 5.20234C6.2425 4.65045 5.3836 4.34539 4.52748 4.35648C4.31276 4.36203 4.08967 4.40363 3.91119 4.52565C3.79407 4.60608 3.70762 4.73088 3.68252 4.86954C3.663 4.98048 3.66858 5.10528 3.72993 5.20512C3.79965 5.31605 3.92235 5.38261 4.04505 5.42421C4.29603 5.51295 4.56652 5.5185 4.82866 5.54623C5.44495 5.62111 6.06403 5.7265 6.64686 5.94559C7.09862 6.11754 7.53086 6.37546 7.8404 6.75263C8.13321 7.0993 8.30332 7.53748 8.36745 7.98676C8.44275 8.50537 8.42044 9.0434 8.2587 9.54814C8.13321 9.95305 7.91848 10.3302 7.63962 10.6491C7.06237 11.3147 6.21462 11.7141 5.34456 11.8167C5.37245 12.3631 5.40591 12.9066 5.43658 13.453C4.71711 13.453 4.00043 13.453 3.28375 13.453C3.31163 12.9122 3.34789 12.3714 3.37298 11.8306C2.79573 11.8112 2.22406 11.6836 1.68585 11.4811C1.16437 11.2842 0.667994 11.0235 0.205078 10.7185C0.545293 9.84766 0.885509 8.97684 1.22851 8.10324C1.61613 8.42772 2.02885 8.73001 2.48062 8.9602C2.96584 9.20702 3.50405 9.3651 4.05063 9.37065C4.30997 9.37342 4.57768 9.35955 4.82308 9.27081C4.97367 9.21534 5.12147 9.11828 5.18839 8.96574C5.25811 8.80489 5.25253 8.60244 5.14656 8.45822C5.07127 8.36116 4.9653 8.2946 4.85376 8.24745C4.70317 8.18644 4.547 8.15316 4.38805 8.1282C3.80244 8.03391 3.21403 7.95625 2.64793 7.77321C2.19338 7.62623 1.74999 7.421 1.38747 7.10484C1.1588 6.90794 0.969168 6.66666 0.835313 6.39487C0.63453 5.98997 0.559237 5.53237 0.564814 5.08309C0.564814 4.58112 0.667994 4.07083 0.918972 3.62987C1.13649 3.23606 1.46834 2.91435 1.84202 2.66752C2.29378 2.37078 2.79852 2.16833 3.31163 2.0047C3.28932 1.46667 3.26701 0.92865 3.24471 0.390625Z" fill="#CAFF33"/>
</svg>
