<svg class="svg-icon" style="width: 1.291015625em; height: 1em;vertical-align: middle;fill: currentColor;overflow: hidden;" viewBox="0 0 1322 1024" version="1.1" xmlns="http://www.w3.org/2000/svg"><path d="M661.103366 0.000275A1019.042222 1019.042222 0 0 0 13.047596 231.901235a36.630437 36.630437 0 0 0-3.580418 52.604612 36.905853 36.905853 0 0 0 51.227528 3.580419 947.709266 947.709266 0 0 1 1201.092737 0 36.905853 36.905853 0 0 0 51.227528-3.580419 36.630437 36.630437 0 0 0-3.580418-52.329195A1019.042222 1019.042222 0 0 0 661.103366 0.000275z"  /><path d="M661.103366 184.529543a833.411287 833.411287 0 0 0-523.291952 185.0801 37.18127 37.18127 0 0 0-5.232919 53.430863 36.630437 36.630437 0 0 0 50.12586 4.957503 763.730833 763.730833 0 0 1 959.276773 0 36.630437 36.630437 0 0 0 50.125861-4.682086 36.905853 36.905853 0 0 0-5.23292-53.430863A834.788371 834.788371 0 0 0 661.103366 184.529543z"  /><path d="M661.103366 369.334227a650.809938 650.809938 0 0 0-402.383969 137.708408 36.630437 36.630437 0 0 0-5.23292 53.430862 36.35502 36.35502 0 0 0 49.850444 4.957503 579.752399 579.752399 0 0 1 716.083724 0 36.079603 36.079603 0 0 0 49.575027-4.957503 36.630437 36.630437 0 0 0-5.508337-53.430862 649.708271 649.708271 0 0 0-402.383969-137.708408z"  /><path d="M661.103366 553.863494a468.208588 468.208588 0 0 0-279.548069 92.815467 36.905853 36.905853 0 0 0-5.508336 55.083363 36.630437 36.630437 0 0 0 49.29961 5.23292 395.773966 395.773966 0 0 1 472.064424 0 36.35502 36.35502 0 0 0 49.024193-4.957503 37.18127 37.18127 0 0 0-5.508336-55.083363A468.208588 468.208588 0 0 0 661.103366 553.863494zM661.103366 738.668178a282.853071 282.853071 0 0 0-153.958 45.443775 36.905853 36.905853 0 0 0-8.537922 55.083363 36.630437 36.630437 0 0 0 47.922526 5.783753 210.143031 210.143031 0 0 1 228.045125 0 36.905853 36.905853 0 0 0 48.197942-6.05917 37.18127 37.18127 0 0 0-8.537921-55.083363A285.056405 285.056405 0 0 0 661.103366 738.668178z"  /><path d="M661.6542 973.598723m-50.401278 0a50.401277 50.401277 0 1 0 100.802555 0 50.401277 50.401277 0 1 0-100.802555 0Z"  /></svg>